<svg xmlns="http://www.w3.org/2000/svg" height="24" viewBox="0 0 24 24" width="24" fill="currentColor"><path d="M0,0h24v24H0V0z" fill="none"/><path d="M20.18,9.45l-2.09,1.57L19.26,14l-2.9-2.06l-1.39,1.38C15.93,13.79,15.82,14,14.73,14H5v2h9.73l1.82,1.82l2.9-2.06 l1.18,3.24l2.09-1.57l-1.18-3.24l2.91-2.06l-2.91-2.06L20.18,9.45z M3.82,9.45l-1.18,3.24L-0.27,14l2.91,2.06l1.18,3.24 l2.09-1.57L4.74,14l2.9-2.06l-2.9-2.06L3.82,9.45z M8.5,8H5.6L3.54,4.72l1.69-1.06L8.5,8z M10.5,8H13l2.82-3.66l-1.58-1.22 L10.5,8z"/></svg>
