<?xml version="1.0" encoding="UTF-8"?>
<svg xmlns="http://www.w3.org/2000/svg" width="512" height="512" viewBox="0 0 512 512" role="img" aria-label="Assembly line">
  

<defs>
  <filter id="softShadow" x="-20%" y="-20%" width="140%" height="140%">
    <feDropShadow dx="0" dy="6" stdDeviation="8" flood-color="#0b1630" flood-opacity="0.18"/>
  </filter>
  <linearGradient id="steel" x1="0" y1="0" x2="1" y2="1">
    <stop offset="0" stop-color="#e8eef6"/>
    <stop offset="1" stop-color="#b7c6d8"/>
  </linearGradient>
  <linearGradient id="steelDark" x1="0" y1="0" x2="1" y2="1">
    <stop offset="0" stop-color="#c7d3e3"/>
    <stop offset="1" stop-color="#8ea2ba"/>
  </linearGradient>
  <linearGradient id="conveyorTop" x1="0" y1="0" x2="1" y2="0">
    <stop offset="0" stop-color="#3a77c6"/>
    <stop offset="1" stop-color="#265aa5"/>
  </linearGradient>
  <linearGradient id="orangeGrad" x1="0" y1="0" x2="1" y2="1">
    <stop offset="0" stop-color="#ffb23a"/>
    <stop offset="1" stop-color="#ff7a1a"/>
  </linearGradient>
  <linearGradient id="magentaGrad" x1="0" y1="0" x2="1" y2="1">
    <stop offset="0" stop-color="#ff5bd6"/>
    <stop offset="1" stop-color="#c72bff"/>
  </linearGradient>
  <linearGradient id="cyanGrad" x1="0" y1="0" x2="1" y2="1">
    <stop offset="0" stop-color="#57f1ff"/>
    <stop offset="1" stop-color="#18a7ff"/>
  </linearGradient>
</defs>

<g filter="url(#softShadow)">
  <!-- base platform -->
  <polygon points="108,310 276,232 404,292 236,370" fill="#1c3f7f"/>
  <polygon points="236,370 404,292 404,348 236,426" fill="#163465"/>
  <polygon points="108,310 236,370 236,426 108,366" fill="#244f98"/>
  <!-- conveyor top -->
  <polygon points="132,300 270,236 388,290 250,354" fill="url(#conveyorTop)"/>
  <!-- conveyor rollers -->
  <g opacity="0.85">
    <ellipse cx="150" cy="316" rx="14" ry="8" fill="#0e2b5c"/><ellipse cx="190" cy="314" rx="14" ry="8" fill="#0e2b5c"/><ellipse cx="230" cy="312" rx="14" ry="8" fill="#0e2b5c"/><ellipse cx="270" cy="310" rx="14" ry="8" fill="#0e2b5c"/><ellipse cx="310" cy="308" rx="14" ry="8" fill="#0e2b5c"/><ellipse cx="350" cy="306" rx="14" ry="8" fill="#0e2b5c"/>
  </g>
  <!-- products -->
  <g>
    <polygon points="210,278 244,260 270,272 236,290" fill="#ffd15a" stroke="#0b1630" stroke-opacity="0.25" stroke-width="2"/>
    <polygon points="236,290 270,272 270,300 236,318" fill="#ff9d2a" stroke="#0b1630" stroke-opacity="0.18" stroke-width="2"/>
    <polygon points="210,278 236,290 236,318 210,306" fill="#ffbf3a" stroke="#0b1630" stroke-opacity="0.18" stroke-width="2"/>

    <polygon points="286,300 320,282 346,294 312,312" fill="#a9f2ff" stroke="#0b1630" stroke-opacity="0.25" stroke-width="2"/>
    <polygon points="312,312 346,294 346,322 312,340" fill="#39b9ff" stroke="#0b1630" stroke-opacity="0.18" stroke-width="2"/>
    <polygon points="286,300 312,312 312,340 286,328" fill="#66e0ff" stroke="#0b1630" stroke-opacity="0.18" stroke-width="2"/>
  </g>
  <!-- robotic arms -->
  <g>
    <!-- left arm base -->
    <polygon points="120,250 152,234 176,246 144,262" fill="url(#orangeGrad)"/>
    <polygon points="144,262 176,246 176,280 144,296" fill="#ff8a22"/>
    <polygon points="120,250 144,262 144,296 120,284" fill="#ffb23a"/>
    <!-- left arm segments -->
    <polygon points="152,220 184,204 206,216 174,232" fill="url(#orangeGrad)"/>
    <polygon points="174,232 206,216 206,238 174,254" fill="#ff8a22"/>
    <polygon points="152,220 174,232 174,254 152,242" fill="#ffb23a"/>
    <circle cx="178" cy="228" r="10" fill="#2a3f5a"/>
    <circle cx="178" cy="228" r="5" fill="#bfe7ff"/>
    <!-- gripper -->
    <polygon points="204,242 220,234 232,240 216,248" fill="#2a3f5a"/>
    <polygon points="216,248 232,240 232,258 216,266" fill="#1f2f45"/>
    <polygon points="204,242 216,248 216,266 204,260" fill="#314a68"/>
    <path d="M232 246 l14 8" stroke="#2a3f5a" stroke-width="6" stroke-linecap="round"/>
    <path d="M232 256 l14 -8" stroke="#2a3f5a" stroke-width="6" stroke-linecap="round"/>

    <!-- right arm -->
    <polygon points="332,208 364,192 388,204 356,220" fill="url(#orangeGrad)"/>
    <polygon points="356,220 388,204 388,238 356,254" fill="#ff8a22"/>
    <polygon points="332,208 356,220 356,254 332,242" fill="#ffb23a"/>
    <circle cx="360" cy="216" r="10" fill="#2a3f5a"/>
    <circle cx="360" cy="216" r="5" fill="#bfe7ff"/>
    <polygon points="300,228 332,212 354,224 322,240" fill="url(#orangeGrad)"/>
    <polygon points="322,240 354,224 354,246 322,262" fill="#ff8a22"/>
    <polygon points="300,228 322,240 322,262 300,250" fill="#ffb23a"/>
    <polygon points="286,252 302,244 314,250 298,258" fill="#2a3f5a"/>
    <polygon points="298,258 314,250 314,268 298,276" fill="#1f2f45"/>
    <polygon points="286,252 298,258 298,276 286,270" fill="#314a68"/>
    <path d="M314 258 l14 8" stroke="#2a3f5a" stroke-width="6" stroke-linecap="round"/>
    <path d="M314 268 l14 -8" stroke="#2a3f5a" stroke-width="6" stroke-linecap="round"/>
  </g>
</g>
<!-- subtle accent labels -->
<text x="52" y="86" font-family="Inter, Arial, sans-serif" font-size="20" fill="#1c3f7f" opacity="0.0">Assembly</text>

</svg>
