<?xml version="1.0" encoding="UTF-8"?>
<svg xmlns="http://www.w3.org/2000/svg" width="512" height="512" viewBox="0 0 512 512" role="img" aria-label="Chemical reactor">
  
  

<defs>
  <filter id="softShadow" x="-20%" y="-20%" width="140%" height="140%">
    <feDropShadow dx="0" dy="6" stdDeviation="8" flood-color="#0b1630" flood-opacity="0.18"/>
  </filter>
  <linearGradient id="steel" x1="0" y1="0" x2="1" y2="1">
    <stop offset="0" stop-color="#e8eef6"/>
    <stop offset="1" stop-color="#b7c6d8"/>
  </linearGradient>
  <linearGradient id="steelDark" x1="0" y1="0" x2="1" y2="1">
    <stop offset="0" stop-color="#c7d3e3"/>
    <stop offset="1" stop-color="#8ea2ba"/>
  </linearGradient>
  <linearGradient id="conveyorTop" x1="0" y1="0" x2="1" y2="0">
    <stop offset="0" stop-color="#3a77c6"/>
    <stop offset="1" stop-color="#265aa5"/>
  </linearGradient>
  <linearGradient id="orangeGrad" x1="0" y1="0" x2="1" y2="1">
    <stop offset="0" stop-color="#ffb23a"/>
    <stop offset="1" stop-color="#ff7a1a"/>
  </linearGradient>
  <linearGradient id="magentaGrad" x1="0" y1="0" x2="1" y2="1">
    <stop offset="0" stop-color="#ff5bd6"/>
    <stop offset="1" stop-color="#c72bff"/>
  </linearGradient>
  <linearGradient id="cyanGrad" x1="0" y1="0" x2="1" y2="1">
    <stop offset="0" stop-color="#57f1ff"/>
    <stop offset="1" stop-color="#18a7ff"/>
  </linearGradient>
</defs>

<g filter="url(#softShadow)">
  <!-- tank body -->
  <ellipse cx="256" cy="150" rx="124" ry="44" fill="url(#steel)" stroke="#9fb2c9" stroke-width="6"/>
  <path d="M132 150 L132 352 C132 390, 182 416, 256 416 C330 416, 380 390, 380 352 L380 150"
        fill="url(#steelDark)" stroke="#8ea2ba" stroke-width="6"/>
  <ellipse cx="256" cy="352" rx="124" ry="44" fill="url(#steel)" stroke="#9fb2c9" stroke-width="6"/>
  <!-- window -->
  <rect x="186" y="208" width="140" height="160" rx="18" fill="#0b1630" opacity="0.08"/>
  <rect x="196" y="218" width="120" height="140" rx="14" fill="#0b1630" opacity="0.12"/>
  <rect x="204" y="226" width="104" height="124" rx="12" fill="#0e2b5c"/>
  <g>
    <rect x="208" y="230" width="96" height="116" rx="10" fill="#0b1630" opacity="0.15"/>
    <path d="M214 334 C230 304, 246 324, 262 298 C278 272, 292 290, 302 260 L302 346 L214 346 Z"
          fill="#58ff7a" opacity="0.75"/>
    <path d="M214 346 C232 332, 248 344, 268 328 C288 312, 292 332, 302 320 L302 346 Z"
          fill="#c72bff" opacity="0.7"/>
    <circle cx="245" cy="326" r="12" fill="#a8ffb6" opacity="0.9"/><circle cx="282" cy="253" r="7" fill="#a8ffb6" opacity="0.9"/><circle cx="231" cy="263" r="12" fill="#a8ffb6" opacity="0.9"/><circle cx="289" cy="329" r="12" fill="#a8ffb6" opacity="0.9"/><circle cx="242" cy="274" r="11" fill="#a8ffb6" opacity="0.9"/><circle cx="295" cy="310" r="10" fill="#a8ffb6" opacity="0.9"/><circle cx="272" cy="280" r="6" fill="#a8ffb6" opacity="0.9"/>
    <circle cx="261" cy="296" r="6" fill="#ff5bd6" opacity="0.75"/><circle cx="271" cy="269" r="9" fill="#ff5bd6" opacity="0.75"/><circle cx="286" cy="257" r="5" fill="#ff5bd6" opacity="0.75"/><circle cx="240" cy="255" r="5" fill="#ff5bd6" opacity="0.75"/><circle cx="246" cy="287" r="9" fill="#ff5bd6" opacity="0.75"/><circle cx="274" cy="339" r="8" fill="#ff5bd6" opacity="0.75"/>
  </g>
  <!-- top mixer -->
  <rect x="240" y="74" width="32" height="92" rx="16" fill="#2a3f5a"/>
  <rect x="222" y="86" width="68" height="22" rx="11" fill="#2b3f5b"/>
  <circle cx="256" cy="112" r="10" fill="#bfe7ff"/>
  <!-- gauges -->
  <g>
    <circle cx="338" cy="168" r="18" fill="#f7fbff" stroke="#8ea2ba" stroke-width="4"/>
    <path d="M338 168 L348 162" stroke="#ff7a1a" stroke-width="4" stroke-linecap="round"/>
    <circle cx="338" cy="168" r="4" fill="#2a3f5a"/>
    <circle cx="176" cy="178" r="16" fill="#f7fbff" stroke="#8ea2ba" stroke-width="4"/>
    <path d="M176 178 L166 170" stroke="#18a7ff" stroke-width="4" stroke-linecap="round"/>
    <circle cx="176" cy="178" r="4" fill="#2a3f5a"/>
  </g>
  <!-- side pipes -->
  <g>
    <path d="M120 250 h-40 v60 h60" stroke="#8ea2ba" stroke-width="16" fill="none" stroke-linecap="round" stroke-linejoin="round"/>
    <path d="M392 278 h40 v56 h-60" stroke="#8ea2ba" stroke-width="16" fill="none" stroke-linecap="round" stroke-linejoin="round"/>
    <circle cx="96" cy="310" r="10" fill="#ff7a1a"/>
    <circle cx="416" cy="334" r="10" fill="#18a7ff"/>
  </g>
</g>

</svg>
